<svg width="34" height="34" viewBox="0 0 34 34" fill="none" xmlns="http://www.w3.org/2000/svg">
<path d="M0.5 31.97C0.5 32.81 1.175 33.485 2.015 33.485H21.5C22.34 33.485 23.015 32.81 23.015 31.97V30.5H0.5V31.97ZM11.75 12.485C6.125 12.485 0.5 15.5 0.5 21.5H23C23 15.5 17.375 12.485 11.75 12.485ZM4.43 18.5C6.095 16.175 9.635 15.485 11.75 15.485C13.865 15.485 17.405 16.175 19.07 18.5H4.43ZM0.5 24.5H23V27.5H0.5V24.5ZM26 6.5V0.5H23V6.5H15.5L15.845 9.5H30.185L28.085 30.5H26V33.5H28.58C29.84 33.5 30.875 32.525 31.025 31.295L33.5 6.5H26Z" fill="white"/>
</svg>
