<svg width="24" height="24" viewBox="0 0 24 24" fill="none" xmlns="http://www.w3.org/2000/svg">
<path d="M5.8763 0.916016C6.52744 0.916016 7.1722 1.04427 7.77378 1.29345C8.37535 1.54263 8.92195 1.90785 9.38238 2.36828C9.8428 2.8287 10.208 3.3753 10.4572 3.97688C10.7064 4.57845 10.8346 5.22321 10.8346 5.87435V10.8327H5.8763C4.56127 10.8327 3.3001 10.3103 2.37023 9.38042C1.44037 8.45055 0.917971 7.18938 0.917971 5.87435C0.917971 4.55932 1.44037 3.29815 2.37023 2.36828C3.3001 1.43841 4.56127 0.916016 5.8763 0.916016ZM8.5013 8.49935V5.87435C8.5013 5.35517 8.34735 4.84766 8.05891 4.41598C7.77047 3.9843 7.3605 3.64784 6.88085 3.44916C6.40119 3.25048 5.87339 3.1985 5.36419 3.29979C4.85499 3.40107 4.38726 3.65108 4.02015 4.01819C3.65304 4.38531 3.40303 4.85304 3.30174 5.36224C3.20046 5.87144 3.25244 6.39924 3.45112 6.87889C3.6498 7.35855 3.98625 7.76852 4.41793 8.05695C4.84961 8.34539 5.35713 8.49935 5.8763 8.49935H8.5013ZM5.8763 13.166H10.8346V18.1243C10.8346 19.105 10.5438 20.0637 9.99901 20.879C9.45418 21.6944 8.67979 22.33 7.77378 22.7052C6.86776 23.0805 5.8708 23.1787 4.90898 22.9874C3.94716 22.7961 3.06367 22.3238 2.37023 21.6304C1.6768 20.937 1.20456 20.0535 1.01324 19.0917C0.821926 18.1298 0.920117 17.1329 1.2954 16.2269C1.67069 15.3209 2.30621 14.5465 3.1216 14.0016C3.937 13.4568 4.89564 13.166 5.8763 13.166ZM5.8763 15.4993C5.35713 15.4993 4.84961 15.6533 4.41793 15.9417C3.98625 16.2302 3.6498 16.6401 3.45112 17.1198C3.25244 17.5995 3.20046 18.1273 3.30174 18.6365C3.40303 19.1457 3.65304 19.6134 4.02015 19.9805C4.38726 20.3476 4.85499 20.5976 5.36419 20.6989C5.87339 20.8002 6.40119 20.7482 6.88085 20.5495C7.3605 20.3508 7.77047 20.0144 8.05891 19.5827C8.34735 19.151 8.5013 18.6435 8.5013 18.1243V15.4993H5.8763ZM18.1263 0.916016C19.4413 0.916016 20.7025 1.43841 21.6324 2.36828C22.5622 3.29815 23.0846 4.55932 23.0846 5.87435C23.0846 7.18938 22.5622 8.45055 21.6324 9.38042C20.7025 10.3103 19.4413 10.8327 18.1263 10.8327H13.168V5.87435C13.168 4.55932 13.6904 3.29815 14.6202 2.36828C15.5501 1.43841 16.8113 0.916016 18.1263 0.916016ZM18.1263 8.49935C18.6455 8.49935 19.153 8.34539 19.5847 8.05695C20.0164 7.76852 20.3528 7.35855 20.5515 6.87889C20.7502 6.39924 20.8022 5.87144 20.7009 5.36224C20.5996 4.85304 20.3496 4.38531 19.9825 4.01819C19.6153 3.65108 19.1476 3.40107 18.6384 3.29979C18.1292 3.1985 17.6014 3.25048 17.1218 3.44916C16.6421 3.64784 16.2321 3.9843 15.9437 4.41598C15.6553 4.84766 15.5013 5.35517 15.5013 5.87435V8.49935H18.1263ZM13.168 13.166H18.1263C19.107 13.166 20.0656 13.4568 20.881 14.0016C21.6964 14.5465 22.3319 15.3209 22.7072 16.2269C23.0825 17.1329 23.1807 18.1298 22.9894 19.0917C22.798 20.0535 22.3258 20.937 21.6324 21.6304C20.9389 22.3238 20.0554 22.7961 19.0936 22.9874C18.1318 23.1787 17.1348 23.0805 16.2288 22.7052C15.3228 22.33 14.5484 21.6944 14.0036 20.879C13.4588 20.0637 13.168 19.105 13.168 18.1243V13.166ZM15.5013 15.4993V18.1243C15.5013 18.6435 15.6553 19.151 15.9437 19.5827C16.2321 20.0144 16.6421 20.3508 17.1218 20.5495C17.6014 20.7482 18.1292 20.8002 18.6384 20.6989C19.1476 20.5976 19.6153 20.3476 19.9825 19.9805C20.3496 19.6134 20.5996 19.1457 20.7009 18.6365C20.8022 18.1273 20.7502 17.5995 20.5515 17.1198C20.3528 16.6401 20.0164 16.2302 19.5847 15.9417C19.153 15.6533 18.6455 15.4993 18.1263 15.4993H15.5013Z" fill="#285A70"/>
</svg>
