<svg width="24" height="24" viewBox="0 0 24 24" fill="none" xmlns="http://www.w3.org/2000/svg">
<path d="M11.9987 0.333008C5.5587 0.333008 0.332031 5.55967 0.332031 11.9997C0.332031 18.4397 5.5587 23.6663 11.9987 23.6663C18.4387 23.6663 23.6654 18.4397 23.6654 11.9997C23.6654 5.55967 18.4387 0.333008 11.9987 0.333008ZM6.24703 19.3263C6.7487 18.2763 9.80537 17.2497 11.9987 17.2497C14.192 17.2497 17.2604 18.2763 17.7504 19.3263C16.1637 20.5863 14.1687 21.333 11.9987 21.333C9.8287 21.333 7.8337 20.5863 6.24703 19.3263ZM19.4187 17.6347C17.7504 15.6047 13.702 14.9163 11.9987 14.9163C10.2954 14.9163 6.24703 15.6047 4.5787 17.6347C3.3887 16.0713 2.66536 14.123 2.66536 11.9997C2.66536 6.85468 6.8537 2.66634 11.9987 2.66634C17.1437 2.66634 21.332 6.85468 21.332 11.9997C21.332 14.123 20.6087 16.0713 19.4187 17.6347ZM11.9987 4.99967C9.73536 4.99967 7.91537 6.81967 7.91537 9.08301C7.91537 11.3463 9.73536 13.1663 11.9987 13.1663C14.262 13.1663 16.082 11.3463 16.082 9.08301C16.082 6.81967 14.262 4.99967 11.9987 4.99967ZM11.9987 10.833C11.0304 10.833 10.2487 10.0513 10.2487 9.08301C10.2487 8.11468 11.0304 7.33301 11.9987 7.33301C12.967 7.33301 13.7487 8.11468 13.7487 9.08301C13.7487 10.0513 12.967 10.833 11.9987 10.833Z" fill="#636363" />
</svg>
