<svg width="22" height="22" viewBox="0 0 22 22" fill="none" xmlns="http://www.w3.org/2000/svg">
<path d="M11 7.5H15.6667C16.3083 7.5 16.8333 6.975 16.8333 6.33333C16.8333 5.69167 16.3083 5.16667 15.6667 5.16667H11C10.3583 5.16667 9.83333 5.69167 9.83333 6.33333C9.83333 6.975 10.3583 7.5 11 7.5ZM11 12.1667H15.6667C16.3083 12.1667 16.8333 11.6417 16.8333 11C16.8333 10.3583 16.3083 9.83333 15.6667 9.83333H11C10.3583 9.83333 9.83333 10.3583 9.83333 11C9.83333 11.6417 10.3583 12.1667 11 12.1667ZM11 16.8333H15.6667C16.3083 16.8333 16.8333 16.3083 16.8333 15.6667C16.8333 15.025 16.3083 14.5 15.6667 14.5H11C10.3583 14.5 9.83333 15.025 9.83333 15.6667C9.83333 16.3083 10.3583 16.8333 11 16.8333ZM5.16667 5.16667H7.5V7.5H5.16667V5.16667ZM5.16667 9.83333H7.5V12.1667H5.16667V9.83333ZM5.16667 14.5H7.5V16.8333H5.16667V14.5ZM20.3333 0.5H1.66667C1.025 0.5 0.5 1.025 0.5 1.66667V20.3333C0.5 20.975 1.025 21.5 1.66667 21.5H20.3333C20.975 21.5 21.5 20.975 21.5 20.3333V1.66667C21.5 1.025 20.975 0.5 20.3333 0.5ZM19.1667 19.1667H2.83333V2.83333H19.1667V19.1667Z" fill="#636363"/>
</svg>
